<?xml version="1.0" standalone="no"?>
<!DOCTYPE svg PUBLIC "-//W3C//DTD SVG 1.1//EN" "http://www.w3.org/Graphics/SVG/1.1/DTD/svg11.dtd" >
<svg xmlns="http://www.w3.org/2000/svg">
<metadata></metadata>
<defs>
<font id="constanceregular" horiz-adv-x="446" >
<font-face units-per-em="2048" ascent="1536" descent="-512" />
<missing-glyph horiz-adv-x="471" />
<glyph horiz-adv-x="0" />
<glyph unicode="&#xd;" horiz-adv-x="471" />
<glyph unicode=" "  horiz-adv-x="471" />
<glyph unicode="&#x09;" horiz-adv-x="471" />
<glyph unicode="&#xa0;" horiz-adv-x="471" />
<glyph unicode="!" horiz-adv-x="473" d="M102 403q2 12 4 37q2 23 2.5 61t2.5 99v592q0 123 66.5 175t193.5 52q-2 -12 -4 -37q-2 -23 -3.5 -61.5t-1.5 -99.5l-4 -590q0 -123 -65.5 -175.5t-190.5 -52.5zM106 100q0 39 17 70q20 35 53 53.5t68 18.5q33 0 59 -15q63 -39 64 -114q-1 -37 -19 -68q-18 -35 -51 -54.5 t-68 -19.5q-31 0 -59 17q-31 16 -47.5 47t-16.5 65z" />
<glyph unicode="$" horiz-adv-x="1159" d="M61 66q6 78 37 102.5t82 19t121 -25t154 -27.5q10 -2 19 -2h20v459q-78 27 -154 57.5t-134.5 73.5t-90 105.5t-19.5 152.5q10 84 50 141.5t95.5 94t121 56t131.5 25.5v152q72 0 118.5 -28.5t51.5 -123.5q74 -8 140 -22t118 -31q59 -18 112 -39q-6 -76 -35.5 -100.5 t-77 -21.5t-113 20.5t-144.5 28.5v-349q82 -29 163.5 -63.5t145 -86.5t98.5 -127t23 -181q-10 -90 -53.5 -152.5t-103.5 -103.5t-132 -63.5t-141 -31.5v-168q-74 0 -122 31t-48 129q-12 2 -23.5 2t-21.5 2q-78 6 -148 21.5t-123 32.5q-63 18 -117 41zM332 979q4 -47 49 -79 t113 -58v291q-74 -12 -121 -49t-41 -105zM664 156q66 23 107.5 65.5t49.5 108.5q6 74 -40 120t-117 78v-372z" />
<glyph unicode="&#x26;" horiz-adv-x="1622" d="M108.5 448.5q12.5 77.5 66.5 158.5t165 159q4 4 9 7t9 7q-45 72 -70.5 143.5t-25.5 143.5q0 76 28.5 142.5t80 114.5t124 75.5t162.5 27.5q74 0 149 -19t136.5 -61t103 -105.5t50.5 -149.5q10 -115 -61.5 -218.5t-219.5 -187.5q-10 -4 -17 -8t-16 -8q68 -68 142.5 -131.5 t169.5 -128.5q51 66 100 148.5t102 186.5q39 -16 64 -45q20 -25 29.5 -67.5t-17.5 -110.5q-14 -33 -43 -91t-76 -126q80 -49 171.5 -98t177.5 -88q-27 -66 -68 -105q-35 -35 -90 -48t-133 30q-41 23 -92.5 53.5t-110.5 69.5q-82 -66 -189.5 -110t-248.5 -46q-4 -2 -13 -2 q-160 0 -288.5 54.5t-196.5 158.5q-37 55 -56.5 126t-7 148.5zM381 328q0 -31 14.5 -65t47 -61.5t85 -45t129.5 -17.5q6 0 12.5 1t10.5 1q23 0 33 2q127 12 227 86q-98 68 -197.5 148t-187.5 166q-80 -49 -128 -99t-46 -116zM526 1067q10 -74 64 -160q53 29 100 56.5 t80 57.5t48.5 62.5t2.5 71.5q-16 59 -64 77.5t-100 18.5q-18 0 -42.5 -10t-46 -31.5t-34 -57.5t-8.5 -85z" />
<glyph unicode="," horiz-adv-x="409" d="M104.5 -123q-4.5 84 2 163t30 137.5t78.5 62.5q49 4 73.5 -38t15.5 -114t-56 -164t-139 -186q0 55 -4.5 139z" />
<glyph unicode="-" horiz-adv-x="989" d="M102 397q0 37 6.5 68t25 54.5t50 35.5t80.5 12h623q0 -37 -6.5 -67.5t-24.5 -54t-50 -36t-81 -12.5h-623z" />
<glyph unicode="." d="M102 123q0 49 35 84t84 35q51 0 87 -35t36 -84q0 -51 -36 -87t-87 -36q-49 0 -84 36t-35 87z" />
<glyph unicode=":" d="M102 123q0 49 35 84t86 35q49 0 85 -35t36 -84q0 -51 -36 -87t-85 -36q-51 0 -86 36t-35 87zM102 711q0 51 35 85.5t86 34.5q49 0 85 -34.5t36 -85.5q0 -49 -36 -85t-85 -36q-51 0 -86 36t-35 85z" />
<glyph unicode=";" d="M102 711q0 51 36 85.5t85 34.5t85 -34.5t36 -85.5q0 -49 -36 -85t-85 -36t-85 36t-36 85zM110.5 -123q4.5 -84 4.5 -139q92 94 139 186t56 164t-14.5 114t-72.5 38q-55 -4 -79.5 -62.5t-31 -137.5t-2 -163z" />
<glyph unicode="?" horiz-adv-x="1134" d="M61 1229q47 57 117 102q59 39 150.5 72t218.5 33q139 0 242.5 -29t170 -80t94 -122.5t15.5 -157.5q-10 -72 -39 -118t-67.5 -79t-85 -59.5t-92.5 -62.5t-87 -88t-69 -132q-20 -59 -50 -83t-59 -28q-33 -6 -67 6q-43 133 -33 223.5t51 153t99.5 104.5t112.5 76.5t93 71.5 t39 88q0 31 -13.5 56.5t-44 44t-81.5 29t-129 10.5q-57 0 -114.5 -11.5t-105.5 -25t-80 -26.5t-40 -15q-31 -12 -57 -13q-10 0 -21.5 2.5t-22.5 10.5q-16 10 -40 41zM408 100q0 35 18 70t51 53.5t68 18.5q33 0 59 -15q33 -18 49.5 -49t16.5 -65q-1 -37 -19 -68 q-18 -35 -51 -54.5t-68 -19.5q-31 0 -59 17q-33 16 -49 47t-16 65z" />
<glyph unicode="@" horiz-adv-x="1695" d="M61 631q0 180 60.5 329.5t165 258t247 170t306.5 67.5q131 4 261 -26.5t239.5 -106.5t187.5 -200t102 -306q14 -100 -17.5 -166.5t-93 -101.5t-145.5 -36t-178 32q-20 -111 -84 -189q-92 -113 -252 -135q-10 0 -20.5 -1t-22.5 -1q-37 0 -77 7t-78 24q-39 16 -73 41.5 t-57 64.5q-33 53 -34 125v11q0 61 28 112q29 49 76 78q47 31 105.5 45t123.5 14q88 0 173 -24q-4 25 -8.5 48t-14.5 46q-10 25 -26.5 45.5t-41.5 32.5q-35 18 -84 18h-18q-25 -2 -49.5 -8t-48.5 -14q-25 -8 -49.5 -14.5t-47.5 -6.5q-29 0 -47 10q-20 12 -37 41l-4 7l7 4 q53 55 122.5 90t151.5 41h31q164 0 262 -109q47 -51 72.5 -120.5t29.5 -155.5q37 -12 66.5 -12.5t50 16t31 50.5t8.5 91q-6 129 -55.5 220t-124 147.5t-164.5 80t-176 15.5q-100 -10 -192.5 -58t-162 -131t-111.5 -200t-42 -260q0 -168 37 -291t98 -203t138 -118.5 t157 -38.5q61 0 102 9t71 19t54.5 19.5t52.5 9.5q27 0 54 -14q20 -12 32 -33q8 -10 15 -23q-10 -18 -39 -45.5t-77 -53.5t-113.5 -45.5t-151.5 -19.5q-135 0 -261 49.5t-224.5 150.5t-157 257t-58.5 371zM674 485q0 -16 5 -36.5t21 -36.5q14 -18 41 -30.5t72 -12.5 q14 0 23 2q47 2 84 26q31 23 51 60q18 33 25.5 67.5t7.5 63.5q0 2 -7 2q-6 2 -15 4t-19 4q-51 10 -111 10q-23 0 -45.5 -2t-44.5 -8q-41 -12 -66 -43q-18 -25 -20 -55q-2 -4 -2 -15z" />
<glyph unicode="A" horiz-adv-x="1280" d="M43 83q-2 11 -2 23q0 25 8 56q45 184 99.5 346t108.5 295t103.5 235.5t83.5 169.5q31 59 86.5 84t108.5 31q25 3 52 3q39 0 81 -7q82 -141 164 -320q70 -154 149.5 -364.5t145.5 -472.5q8 -31 8 -56q0 -12 -2 -23q-6 -32 -25.5 -50.5t-49 -25.5t-66.5 -7h-103 q-16 86 -34.5 167t-36.5 157h-564q-18 -76 -36.5 -157t-34.5 -167h-103q-37 0 -66.5 7t-49 25.5t-25.5 50.5zM408 494h464q-43 141 -83.5 256.5t-73.5 197.5q-37 96 -74 170q-35 -74 -74 -170q-35 -82 -76.5 -197.5t-82.5 -256.5z" />
<glyph unicode="B" horiz-adv-x="1206" d="M82 616v639q74 20 160 35q74 12 173 22q72 8 153 8q31 0 63 -1q84 -4 147.5 -30.5t105.5 -69.5t63.5 -98.5t21.5 -114.5q0 -68 -22.5 -117t-69.5 -103q59 -20 112 -50.5t92 -76t61.5 -105.5t22.5 -142q0 -92 -35.5 -170t-101 -135.5t-158 -90t-206.5 -32.5 q-133 0 -240 30.5t-183.5 104.5t-117.5 194.5t-41 302.5zM326 829h182q55 0 100 7.5t76 28t47 54.5q13 27 13 67q0 10 -1 20q-4 57 -42.5 92t-98.5 48q-37 8 -78 8q-26 0 -54 -3q-73 -8 -144 -35v-287zM334 616q-1 -22 -1 -43q-1 -108 17 -179q20 -85 63.5 -131t107 -61.5 t143.5 -15.5q133 0 189 57.5t56 168.5q0 90 -30.5 141t-78.5 75t-106 30q-43 4 -84 5q-15 0 -30 -1q-33 -1 -63 -1h-31q-44 1 -78 1h-74v-46z" />
<glyph unicode="C" horiz-adv-x="1140" d="M61 651q0 135 46.5 257t130.5 213t203.5 144.5t265.5 53.5q78 0 147.5 -10.5t124.5 -22.5q63 -14 121 -31q0 -79 -28 -105q-27 -25 -75 -25h-4q-51 1 -120.5 14.5t-155.5 13.5q-96 0 -165 -46t-114 -117.5t-66.5 -162t-21.5 -176.5t21.5 -175t66.5 -161.5t114 -118.5 t165 -46q86 0 155.5 13t120.5 14h4q48 -1 75 -25q28 -26 28 -103q-57 -18 -121 -33q-55 -12 -125 -21t-147 -9q-145 0 -265 53t-204 144t-130.5 212t-46.5 256z" />
<glyph unicode="D" horiz-adv-x="1357" d="M102 332v923q74 20 160 37q74 12 173 22q70 7 148 6q33 0 68 -1q145 -6 264 -60.5t204 -143.5t131 -209t46 -255t-46 -253.5t-131 -208t-203.5 -143.5t-264.5 -60q-36 -1 -70 -1q-107 0 -187 14q-105 19 -169.5 63t-93.5 112t-29 158zM346 334q0 -35 3 -70t31 -62.5 t87 -42.5q42 -11 113 -10q28 0 61 1q94 6 163.5 46t115 106.5t67 155.5t21.5 193q0 86 -17.5 171t-59.5 155t-112.5 117t-177.5 59q-49 5 -90 5q-20 0 -39 -1q-55 -4 -92 -14q-43 -10 -74 -27v-782z" />
<glyph unicode="E" horiz-adv-x="1085" d="M102 346v764q0 70 19.5 111t52.5 62.5t76 28.5t90 7h639q0 -37 -6 -67.5t-24.5 -54t-50.5 -36t-81 -12.5h-471v-356h528q0 -37 -6 -68t-24.5 -54.5t-50 -35.5t-80.5 -12h-367v-269q0 -35 3 -67.5t30 -58t87 -42t175 -16.5h383q0 -37 -6 -67.5t-24.5 -54t-50.5 -36 t-81 -12.5h-211q-154 0 -258 20.5t-168.5 62.5t-93.5 107.5t-29 155.5z" />
<glyph unicode="F" horiz-adv-x="1019" d="M102 162v948q0 70 19.5 111t52.5 62.5t76 28.5t90 7h639q0 -37 -6 -67.5t-24.5 -54t-50.5 -36t-81 -12.5h-471v-356h528q0 -37 -6 -68t-24.5 -54.5t-50 -35.5t-80.5 -12h-367v-623h-74q-37 0 -67.5 6t-54 24.5t-36 50.5t-12.5 81z" />
<glyph unicode="G" horiz-adv-x="1341" d="M61 651q0 135 46.5 257t130.5 213t202.5 144.5t266.5 53.5q100 0 194 -10.5t166 -22.5q84 -14 160 -31q0 -80 -40 -100q-33 -17 -86 -17q-11 0 -23 1q-68 4 -162 16q-43 6 -88 6q-54 0 -111 -8q-106 -12 -177 -60.5t-113 -117t-59.5 -153.5t-17.5 -171q0 -104 21.5 -193 t66.5 -155.5t114 -106.5t165 -46q32 -2 60 -2q70 0 114 11q61 15 89 42.5t32 62.5t4 70v221h-72q-49 0 -81 12.5t-50 36t-24.5 54t-6.5 67.5h478v-393q0 -90 -30 -158t-95.5 -112t-170.5 -63q-81 -14 -187 -14q-34 0 -70 1q-145 6 -265 60t-204 143.5t-130.5 208 t-46.5 253.5z" />
<glyph unicode="H" horiz-adv-x="1298" d="M102 162v1157h72q37 0 67.5 -6t54 -24.5t36 -50.5t12.5 -81v-364h608v526h72q37 0 67.5 -6t54 -24.5t36 -50.5t12.5 -81l2 -1157h-74q-37 0 -67.5 6t-54 24.5t-36 50.5t-12.5 81v461h-608l2 -623h-74q-37 0 -67.5 6t-54 24.5t-36 50.5t-12.5 81z" />
<glyph unicode="I" horiz-adv-x="448" d="M102 162v1157h72q37 0 67.5 -6t54 -24.5t36 -50.5t12.5 -81l2 -1157h-74q-37 0 -67.5 6t-54 24.5t-36 50.5t-12.5 81z" />
<glyph unicode="J" horiz-adv-x="907" d="M45 150h111q117 0 194.5 11t124.5 35.5t66.5 62.5t19.5 91v969h74q37 0 67.5 -6t54 -24.5t36 -50.5t12.5 -81v-825q0 -115 -56.5 -188.5t-145.5 -112.5t-199 -49q-47 -4 -94 -4q-63 0 -126 8q-66 8 -95.5 34.5t-39.5 55.5q-6 22 -6 45q0 14 2 29z" />
<glyph unicode="K" horiz-adv-x="1220" d="M102 162v1157h74q37 0 67.5 -6t53 -24.5t35 -50.5t12.5 -81l2 -315q37 33 96.5 84t117.5 102t105.5 93t63.5 57q81 72 153 88q48 11 89 11q20 0 39 -3q66 -8 118 -43l-559 -498q127 -139 242 -266q49 -55 101.5 -111.5t101.5 -109.5t92 -100.5t74 -79.5 q-10 -27 -55.5 -46.5t-114.5 -19.5q-41 0 -79 17.5t-73 47t-67.5 66.5t-63.5 76q-18 23 -68.5 80t-108.5 123.5t-114.5 131t-89.5 101.5v-643h-74q-37 0 -67.5 6t-54 24.5t-36 50.5t-12.5 81z" />
<glyph unicode="L" horiz-adv-x="909" d="M102 332v987h74q37 0 67.5 -6t54.5 -24.5t36 -50.5t12 -81v-807q0 -53 19.5 -91t67.5 -62.5t126 -35.5t195 -11h110q2 -15 2 -29q0 -23 -6 -45q-10 -29 -41 -55.5t-96 -34.5q-62 -7 -125 -7q-46 0 -94 4q-110 9 -199.5 48t-146 112.5t-56.5 188.5z" />
<glyph unicode="M" horiz-adv-x="1644" d="M102 162v1157h72q37 0 82 -2t92 -19.5t92 -56.5t82 -113q16 -35 38 -81t46.5 -97t49 -105t49.5 -104q55 -119 114 -243q109 180 205 340q41 68 83 138.5t79 135t66.5 118.5t45.5 89h72q37 0 67.5 -6t54.5 -24.5t36 -50.5t12 -81l2 -1157h-74q-37 0 -67.5 6t-54 24.5 t-36 50.5t-12.5 81v747l-415 -790q-31 -8 -62 0q-27 6 -56.5 25.5t-55.5 66.5l-365 692l2 -903h-74q-37 0 -67.5 6t-54 24.5t-36 50.5t-12.5 81z" />
<glyph unicode="N" horiz-adv-x="1355" d="M102 162v1157h99q41 0 82 -10q66 -18 124 -66.5t130 -155.5q18 -31 48.5 -77.5t67.5 -103t78 -120t82 -124.5q94 -143 199 -310v967h71q37 0 68 -6t53.5 -24.5t34.5 -50.5t12 -81l2 -1157h-98q-23 0 -43 2t-39 8q-66 18 -124 65.5t-128 153.5q-18 31 -49 78t-67.5 104.5 t-78.5 121t-81 124.5q-94 143 -199 310v-967h-74q-37 0 -67.5 6t-54 24.5t-36 50.5t-12.5 81z" />
<glyph unicode="O" horiz-adv-x="1433" d="M61 651q0 135 48.5 257t134.5 213t207 144.5t266 53.5t266 -53.5t207 -144.5t134 -213t48 -257t-48 -256t-134 -212t-207 -144t-266 -53t-266 53t-207 144t-134.5 212t-48.5 256zM350 682q-4 -50 -4 -94q0 -96 20 -165q30 -101 83 -160.5t114.5 -84t108.5 -28.5 q11 -1 23 -1q39 0 89 10q64 13 126.5 63t110.5 144t62 252q3 45 3 85q0 103 -22 175q-30 102 -82 162t-113.5 84.5t-108.5 28.5q-10 1 -21 1q-41 0 -91 -12q-64 -14 -125.5 -64t-109.5 -144t-63 -252z" />
<glyph unicode="P" horiz-adv-x="1165" d="M102 162v1093q72 20 156 37q72 12 170 22q69 7 147 6q33 0 68 -1q133 -6 227.5 -48t151.5 -109q58 -68 82 -155q20 -70 19 -146q0 -19 -1 -38q-6 -88 -39.5 -164.5t-93 -134t-146.5 -90.5t-200 -33q-90 0 -163.5 11.5t-133.5 27.5v-440h-74q-37 0 -67.5 6t-54 24.5 t-36 50.5t-12.5 81zM344 1118l2 -504q103 -31 192 -31q17 0 33 1q43 2 86 14t79 39t62 69.5t36 108.5q5 40 5 74q1 43 -7 77q-14 62 -43 101t-68 59.5t-78 26.5q-52 8 -96 8q-13 0 -26 -1q-54 -3 -93 -13q-45 -10 -82 -31z" />
<glyph unicode="Q" horiz-adv-x="1488" d="M61 651q0 135 47.5 257t133.5 213t206.5 144.5t268.5 53.5q145 0 266 -53.5t207 -144.5t134 -213t48 -257q0 -160 -63.5 -296t-180.5 -228l279 -336q-10 -27 -42 -46t-101 -19q-41 0 -79 17t-73 46t-67.5 65.5t-63.5 75.5l-70 84q-89 -28 -187 -28h-7q-147 0 -268 53 t-207 144t-133.5 212t-47.5 256zM350 682q-4 -50 -4 -94q0 -96 20 -165q31 -101 83.5 -160.5t114 -84t108.5 -28.5q17 -3 36 -3q9 0 20 1q30 2 63 12l-136 166q10 27 42 46t100 19q51 0 96 -25.5t88 -66.5q37 53 63.5 131t36.5 188q4 50 4 94q0 96 -21 166 q-30 101 -82 161.5t-113.5 85t-108.5 28.5q-10 1 -21 1q-40 0 -91 -12q-64 -14 -125.5 -64t-109.5 -144t-63 -252z" />
<glyph unicode="R" horiz-adv-x="1261" d="M102 162v1093q72 20 156 37q72 12 169 22q68 7 146 7q33 0 68 -2q133 -6 225 -42t148.5 -91.5t81 -125t24.5 -142.5q0 -111 -73.5 -203t-198.5 -144q39 -18 67.5 -41.5t50 -50t38 -54t28.5 -50.5q16 -33 48 -95.5t63 -123.5l78 -156h-172q-45 0 -77 17.5t-52.5 40 t-30.5 44t-15 29.5q-4 8 -17 35t-31.5 64.5t-39 83.5t-41.5 94q-29 68 -82 90t-112 26h-205v-524h-74q-37 0 -67.5 6t-54 24.5t-36 50.5t-12.5 81zM346 705h242q133 0 186 53t57 151v13q0 61 -17 104q-19 47 -53 75.5t-78 42t-89 17.5q-21 2 -43 2q-93 0 -205 -28v-430z" />
<glyph unicode="S" horiz-adv-x="1159" d="M61 82q6 78 37 102q27 21 68 22q7 0 14 -1q51 -4 121 -24.5t154 -28.5q29 -2 56 -2q41 0 79 5q63 9 112.5 33.5t81 64.5t37.5 95q1 8 1 15q0 69 -50 113q-55 48 -141 84t-185.5 66.5t-182.5 76t-132 113.5q-38 53 -38 133q0 23 3 48q14 111 77 176.5t145 99.5t172 42 q51 5 95 5q33 0 62 -3q76 -8 146.5 -22.5t124.5 -30.5q63 -18 116 -41q-6 -77 -36 -101q-26 -20 -68 -21q-6 0 -14 1q-52 4 -121.5 23.5t-153.5 27.5q-30 3 -60 3q-31 0 -59 -3q-58 -6 -102 -25q-44 -18 -68 -51q-21 -28 -20 -69v-13q6 -57 68.5 -92t151.5 -65.5 t190.5 -64.5t184.5 -87t132 -135q38 -64 39 -154q0 -26 -4 -53q-10 -86 -49 -147.5t-96.5 -102.5t-126 -64.5t-136.5 -33.5t-130 -11h-24q-47 0 -83 3q-78 6 -148 21.5t-123 31.5q-63 18 -117 41z" />
<glyph unicode="T" horiz-adv-x="1110" d="M20 1149q0 37 6.5 67.5t25 54t50 36t80.5 12.5h908q0 -37 -6.5 -67.5t-24 -54t-49 -36t-82.5 -12.5h-252l2 -1149h-74q-37 0 -67.5 6t-54 24.5t-36 50.5t-12.5 81v987h-414z" />
<glyph unicode="U" horiz-adv-x="1304" d="M82 651v668h94q37 0 67.5 -6t53 -24.5t35 -50.5t12.5 -81v-506q0 -158 28.5 -256t72.5 -153.5t98.5 -75t107.5 -19.5t107.5 19.5t99.5 75t72.5 154t27.5 255.5v668h95q37 0 67.5 -6t54 -24.5t36 -50.5t12.5 -81v-506q0 -135 -32 -256t-100.5 -212t-177 -144t-262.5 -53 t-261 53t-176 144t-100.5 212t-31.5 256z" />
<glyph unicode="V" horiz-adv-x="1277" d="M43 1243q6 31 25.5 49.5t49 25.5t66.5 7h103q16 -84 47 -201.5t75 -257t101 -293t129 -307.5q70 154 128 307.5t102 293t75 257t47 201.5h103q37 0 66.5 -7t49 -25.5t25.5 -49.5q2 -10 2 -23q0 -25 -8 -57q-66 -262 -144.5 -473t-148.5 -364q-82 -178 -164 -318 q-42 -7 -81 -7q-26 0 -52 3q-53 6 -109.5 29.5t-87.5 83.5q-35 68 -84 170t-102 235t-107.5 295t-99.5 346q-8 33 -8 57q0 13 2 23z" />
<glyph unicode="W" horiz-adv-x="1966" d="M43 1243q6 31 25.5 49.5t49 25.5t66.5 7h103q14 -90 35.5 -184t44 -185.5t47 -178.5t49.5 -163q53 -180 115 -348q59 168 114 348q25 76 49.5 163t48 178.5t44 185.5t36.5 184h123q53 -4 81 -27.5t40 -76.5q35 -174 81 -343t89 -307q51 -160 102 -305q59 168 115 348 q25 76 49.5 163t48 178.5t44 185.5t36.5 184h101q37 0 67.5 -7t49 -25.5t24.5 -49.5q2 -10 2 -23q0 -25 -8 -57q-66 -262 -134.5 -473t-127.5 -364q-68 -178 -133 -318q-42 -7 -82 -7q-27 0 -52 3q-53 6 -109 29.5t-87 83.5q-47 90 -107.5 264t-103.5 401 q-47 -180 -94 -321.5t-86 -243.5q-45 -119 -88 -209q-42 -7 -81 -7q-26 0 -52 3q-53 6 -109.5 29.5t-87.5 83.5q-70 135 -155 404.5t-177 641.5q-8 33 -8 57q0 13 2 23z" />
<glyph unicode="X" horiz-adv-x="1277" d="M40 155v5q0 48 52 114q14 18 36 45t47.5 59t53 66.5t54.5 67.5q61 78 131 164q-47 59 -90 119q-39 51 -80 106t-74 103q-33 45 -48.5 81.5t-18.5 67.5t4.5 55.5t19.5 42.5q29 43 88 68l360 -475q76 104 140 186q27 35 53.5 70t48 64.5t37.5 50t23 26.5q57 63 106 71 q16 2 30 2q31 0 58 -11q43 -20 82 -68l-424 -565q115 -137 213 -258q43 -51 86 -103.5t83 -99.5t73 -85t53 -61q-20 -27 -64.5 -45t-101.5 -18q-37 0 -66.5 11.5t-57 33t-55.5 52t-63 71.5q-6 6 -20 22.5t-33.5 41t-43 54t-48.5 60.5q-55 70 -125 158l-395 -504 q-59 31 -92 70q-29 35 -32 85z" />
<glyph unicode="Y" horiz-adv-x="1208" d="M42 1161q-1 9 -1 18q0 20 5 37q7 23 20 41q29 43 88 68l395 -522q88 117 160 213q31 41 60.5 81t55 71.5t43 55t23.5 29.5q57 63 107 71q15 2 30 2q31 0 57 -11q43 -20 82 -68l-495 -657v-590h-74q-37 0 -67.5 6t-54 24.5t-36 50.5t-12.5 81v420q-55 74 -105.5 140 t-92.5 123.5t-73.5 99.5t-47.5 67q-33 45 -48.5 81.5t-18.5 67.5z" />
<glyph unicode="Z" horiz-adv-x="1079" d="M73 82q-1 8 -1 16q0 36 11 79q13 52 49 117.5t104 149.5q33 41 74.5 93.5t86.5 110t92.5 116.5t92.5 115q104 129 215 270h-711q0 37 6 67.5t24.5 54t50.5 36t81 12.5h766q10 -39 13 -82q1 -8 1 -16q0 -36 -11 -79q-13 -52 -49 -118t-104 -150q-33 -41 -74.5 -94 t-88 -110.5t-93.5 -116.5t-92 -115q-104 -131 -215 -268h713q0 -37 -6.5 -67.5t-24.5 -54t-50 -36t-81 -12.5h-766q-10 39 -13 82z" />
<glyph unicode="a" horiz-adv-x="974" d="M51 311q4 181 167 243q95 36 231 36q98 0 219 -19q4 26 4 51q0 35 -8 66q-12 45 -52.5 82t-130.5 37q-86 0 -150.5 -13.5t-107.5 -14.5h-3q-40 1 -62 25q-22 26 -23 105q45 16 101 31q47 12 112.5 22.5t143.5 10.5q53 0 122.5 -5t131 -41t104.5 -117t43 -232v-578h-72 q-55 0 -96 16.5t-59 63.5q-25 -29 -78 -60.5t-146 -35.5h-15q-69 0 -133 16q-72 18 -126.5 59t-86.5 103q-30 59 -30 139v10zM274 301q0 -41 13.5 -67.5t37 -42t55 -21.5t66.5 -6q43 0 84 11t73 40q31 29 49 79q16 45 16 112v16q-29 8 -64 14q-30 4 -70 8q-24 3 -51 3 q-18 0 -37 -1q-29 -2 -58.5 -9t-55 -24.5t-42 -44t-16.5 -67.5z" />
<glyph unicode="b" horiz-adv-x="1064" d="M82 477v842h74q37 0 67.5 -6t53 -24.5t35 -50.5t12.5 -81v-285q25 23 59 46q29 16 69 33.5t91 21.5q15 1 31 1q66 0 132 -20q82 -26 148 -86.5t108 -158t42 -232.5t-40 -229t-104.5 -152.5t-147.5 -85t-169 -26.5t-169 26.5t-147.5 85t-104.5 152.5t-40 229zM332 489 q-1 -18 -1 -35q0 -64 12 -112q15 -61 43 -100t64.5 -57.5t75.5 -20.5h10l68 12q39 14 71 50t53.5 95.5t25.5 145.5q1 19 1 36q1 63 -11 111q-14 60 -42 99t-66 58.5t-77 21.5h-9l-69 -13q-39 -16 -70.5 -52t-53 -94.5t-25.5 -144.5z" />
<glyph unicode="c" horiz-adv-x="927" d="M61 477q0 135 40 230.5t104.5 154t147.5 85t169 26.5q78 0 142.5 -10.5t111.5 -22.5q55 -14 101 -31q0 -79 -23 -105q-22 -25 -63 -25h-3q-43 1 -107.5 14.5t-148.5 13.5q-98 0 -159.5 -78t-61.5 -252t60.5 -252t160.5 -78q84 0 148.5 13.5t107.5 14.5h3q41 -1 63 -25 q23 -26 23 -103q-45 -18 -101 -33q-47 -12 -111.5 -21t-142.5 -9q-86 0 -169 26.5t-147.5 85t-104.5 152.5t-40 229z" />
<glyph unicode="d" horiz-adv-x="1062" d="M61 477q0 135 42 232.5t107.5 158t147.5 86.5q66 21 131 20q15 0 31 -1q51 -4 92 -21.5t70 -33.5q33 -23 57 -46v447h72q37 0 67.5 -6t54 -24.5t36 -50.5t12.5 -81v-680q0 -119 -34 -211t-94 -154.5t-145 -95t-186 -32.5q-98 0 -181 38.5t-146 106.5q-61 68 -97.5 157 t-36.5 191zM311 461q8 -98 37 -158.5t63.5 -92.5t72.5 -41q31 -7 55 -7h10q27 2 61.5 17.5t64.5 53t47 101.5q12 44 12 104q0 28 -3 60q-8 98 -36.5 158.5t-63.5 91t-73 40.5q-31 8 -54 7h-10q-27 -2 -62 -17.5t-64.5 -52.5t-47.5 -101q-12 -44 -12 -105q0 -27 3 -58z" />
<glyph unicode="e" horiz-adv-x="1019" d="M61 477q0 135 40 227.5t104.5 149.5t147.5 85t169 34q20 1 39 2q60 -1 120 -15q79 -18 141 -59t100 -103q34 -56 34 -129v-16q-2 -74 -33.5 -138t-105.5 -104q-73 -41 -195 -49q-21 -1 -44 -1q-110 0 -263 34q16 -127 73.5 -182t143.5 -57q86 0 156 8q47 5 84 5 q19 0 35 -1q49 -4 75 -28q24 -23 23 -83v-10q-43 -18 -100 -33q-49 -12 -120 -21t-163 -9q-86 0 -169 26.5t-147.5 85t-104.5 152.5t-40 229zM315 557q84 -23 156 -30q27 -3 52 -3q40 0 73 8q53 12 86 41t39 80q1 9 1 18q0 51 -40 93q-42 43 -128 44q-11 0 -22 -1 q-86 -4 -143.5 -62.5t-73.5 -187.5z" />
<glyph unicode="f" horiz-adv-x="806" d="M102 162v661q0 135 38 230.5t100.5 154t143.5 85t167 26.5q78 0 124 -10.5t70 -22.5q29 -14 41 -31q-6 -55 -26.5 -77.5t-51.5 -27.5q-16 -3 -36 -3q-15 0 -32 2q-38 4 -79 4q-96 0 -158.5 -78t-62.5 -250h352q0 -37 -6 -67.5t-24.5 -54t-50 -36t-81.5 -12.5h-186v-655 h-72q-37 0 -67.5 6t-54 24.5t-36 50.5t-12.5 81z" />
<glyph unicode="g" horiz-adv-x="1077" d="M41 545q0 96 29.5 179t88 142.5t146.5 87.5q65 22 146 22q29 0 59 -3q96 -10 152.5 -49t78.5 -62q16 57 59.5 74.5t102.5 17.5h72v-823q0 -135 -40 -229.5t-104.5 -152.5t-147.5 -84.5t-169 -26.5q-78 0 -150.5 9t-132.5 21q-68 12 -129 31q8 86 45 114.5t91.5 28.5 t123 -14t142.5 -14q47 0 88 17t70.5 55t46 98.5t16.5 146.5v55q-23 -23 -53 -41q-27 -16 -67 -28.5t-95 -16.5q-20 -1 -40 -1q-69 0 -135 15q-85 21 -150.5 73.5t-104.5 140.5t-39 217zM285 565q-3 -32 -3 -59q0 -52 12 -88q19 -56 50 -85.5t68 -39.5t65 -12q8 -1 17 -1 q23 0 51 4q39 5 75.5 30.5t65.5 75.5t39 136q3 25 3 47q0 49 -12 85q-18 51 -48.5 80.5t-66.5 42t-66 14.5q-8 1 -18 1q-21 0 -48 -4q-39 -4 -78 -25.5t-68.5 -68.5t-37.5 -133z" />
<glyph unicode="h" horiz-adv-x="1105" d="M102 162v1157h72q37 0 67.5 -6t54 -24.5t36 -50.5t12.5 -81v-285q25 23 57 46q29 16 69 33.5t93 21.5q15 1 31 1q65 0 131 -20q82 -26 148.5 -86.5t108.5 -158t42 -232.5v-477h-72q-37 0 -67.5 6t-54 24.5t-36 50.5t-12.5 81v305q0 94 -15 156.5t-43 99.5t-64.5 52.5 t-79.5 17.5h-11q-39 -1 -76 -13q-42 -14 -75 -49t-53.5 -94t-20.5 -148v-489h-72q-37 0 -67.5 6t-54 24.5t-36 50.5t-12.5 81z" />
<glyph unicode="i" d="M102 162q0 -49 12.5 -81t36 -50.5t54.5 -24.5t67 -6h72v795q0 49 -12.5 80.5t-36 49t-54 23.5t-67.5 6h-72v-792zM102 1184q0 49 35 84t84 35q51 0 87 -35t36 -84q0 -51 -36 -87t-87 -36q-49 0 -84 36t-35 87z" />
<glyph unicode="j" horiz-adv-x="534" d="M-266 -301q16 -18 51 -31q29 -12 79 -21t128 -9q86 0 166 26.5t141 84.5t97 152.5t36 229.5v664q0 49 -12 80.5t-36 49t-54.5 23.5t-67.5 6h-72v-823q0 -174 -55 -252t-153 -78q-49 0 -94 7q-27 5 -51 5q-15 0 -27 -1q-35 -5 -55.5 -28.5t-20.5 -84.5zM190 1184 q0 49 36 84t85 35t85 -35t36 -84q0 -51 -36 -87t-85 -36t-85 36t-36 87z" />
<glyph unicode="k" horiz-adv-x="1032" d="M102 162v1157h72q37 0 67.5 -6t54 -24.5t36 -50.5t12.5 -81v-500q35 31 78 68t84 71.5t73.5 63.5t49.5 43q79 73 147 91q56 15 99 15q9 0 18 -1q57 -6 104 -35l-450 -404q86 -94 170 -184q37 -39 74.5 -81t76.5 -84t76 -82t68 -72q-10 -27 -42 -46.5t-100 -19.5 q-41 0 -78.5 17.5t-73.5 47t-69 66.5t-63 76q-18 25 -48 58.5t-63 72.5t-67.5 78t-63.5 73v-489h-72q-37 0 -67.5 6t-54 24.5t-36 50.5t-12.5 81z" />
<glyph unicode="l" d="M102 162v1157h72q37 0 67.5 -6t54 -24.5t36 -50.5t12.5 -81v-1157h-72q-37 0 -67.5 6t-54 24.5t-36 50.5t-12.5 81z" />
<glyph unicode="m" horiz-adv-x="1619" d="M102 162v792h72q57 0 100 -17t60 -73q8 8 22.5 25.5t36 34t53 31t74.5 18.5q16 1 32 1q82 0 160 -35q92 -42 152 -140q12 20 34 49t52.5 54.5t72.5 46t95 24.5q15 1 30 1q64 0 126 -20q76 -26 134 -86.5t94 -158t36 -232.5v-477h-72q-37 0 -67.5 6t-54 24.5t-36 50.5 t-12.5 81v305q0 94 -9 156.5t-28.5 99.5t-50 52.5t-73.5 17.5h-10q-37 -1 -69 -13q-36 -14 -61.5 -49t-40 -94t-14.5 -148v-489h-72q-37 0 -67.5 6t-54 24.5t-36 50.5t-12.5 81v305q0 94 -9 156.5t-28.5 99.5t-49 52.5t-72.5 17.5h-11q-39 -1 -70 -13q-36 -14 -61.5 -49 t-39 -94t-13.5 -148v-489h-74q-37 0 -67.5 6t-53 24.5t-35 50.5t-12.5 81z" />
<glyph unicode="n" horiz-adv-x="1105" d="M102 162v792h72q59 0 102 -17t60 -73q8 8 29.5 25.5t50 34t66.5 31t81 18.5q15 1 31 1q65 0 132 -20q83 -26 148.5 -86.5t107.5 -158t42 -232.5v-477h-72q-37 0 -67.5 6t-54 24.5t-36 50.5t-12.5 81v305q0 94 -15 156.5t-43 99.5t-64.5 52.5t-79.5 17.5h-10l-76 -13 q-43 -14 -76 -49t-53.5 -94t-20.5 -148v-489h-72q-37 0 -67.5 6t-54 24.5t-36 50.5t-12.5 81z" />
<glyph unicode="o" horiz-adv-x="1044" d="M61 477q0 104 33 193.5t92 156.5q59 66 145.5 106t190.5 40q96 0 180.5 -40t145.5 -106q63 -68 99 -156.5t36 -193.5q0 -102 -32.5 -191t-92.5 -157q-59 -68 -145 -106.5t-191 -38.5q-96 0 -179 38.5t-146 106.5t-99.5 157t-36.5 191zM313 498q-4 -36 -4 -67 q-1 -55 11 -96q18 -65 47.5 -102.5t65.5 -53t63 -17.5h10q24 0 54 7q36 9 72 41t63.5 92t37.5 159q3 31 3 59q0 60 -12 104q-17 64 -47 101t-64.5 52.5t-61.5 17.5h-10q-25 1 -55 -7q-38 -10 -72.5 -40.5t-63 -91t-37.5 -158.5z" />
<glyph unicode="p" horiz-adv-x="1073" d="M100 -201v1151h72q53 0 93 -14t61 -57q29 25 83 55.5t130 38.5q25 2 49 2q94 0 166 -32q90 -40 147 -111.5t83 -165.5q24 -86 24 -175v-14q-2 -102 -34 -191t-93 -157t-147.5 -106.5t-194.5 -38.5q-43 0 -77 9t-58.5 20.5t-40 23.5t-21.5 18v-417h-72q-37 0 -67.5 6 t-54 24.5t-36 50t-12.5 80.5zM324 498q-2 -31 -2 -58q0 -62 12 -106q18 -64 50 -101.5t67.5 -53t64.5 -17.5h11q25 0 57 7q39 9 75.5 40t66.5 90t38 158q3 33 3 62q0 59 -11 103q-17 66 -47.5 103t-67.5 52.5t-68 17.5h-11q-25 0 -56 -7q-39 -8 -77 -39.5t-67.5 -91 t-37.5 -159.5z" />
<glyph unicode="q" horiz-adv-x="1079" d="M63 477v14q0 89 24 175q26 94 83 165.5t148 111.5q72 32 166 32q23 0 48 -2q78 -8 132.5 -40t83.5 -56q18 47 60 62t97 15h72v-1312h-72q-37 0 -67.5 6t-54 24.5t-36 50t-12.5 80.5v258l-2 -2q-20 -23 -51 -39q-27 -14 -64.5 -25t-85.5 -11q-109 0 -194.5 38.5 t-147.5 106.5q-61 68 -91.5 157t-35.5 191zM307 498q-2 -30 -2 -57q0 -62 13 -107q18 -64 49.5 -101.5t67.5 -53t65 -17.5h11q25 0 57 7q38 9 75 40t66 90.5t39 157.5q3 31 3 59q0 62 -13 106q-17 66 -48 103t-66.5 52.5t-66.5 17.5h-11q-25 0 -56 -7q-39 -8 -77 -39.5 t-68 -91t-38 -159.5z" />
<glyph unicode="r" horiz-adv-x="782" d="M102 162v792h72q59 0 102 -17t60 -73q10 12 26.5 29.5t39 34t51 29t65.5 16.5q28 3 53 3q33 0 60 -5q47 -8 78 -19q37 -14 61 -32q-4 -43 -29 -76q-23 -29 -69 -47q-26 -10 -67 -10q-31 0 -70 6q-13 2 -25 2q-70 1 -114 -59q-52 -70 -52 -247v-489h-72q-37 0 -67.5 6 t-54 24.5t-36 50.5t-12.5 81z" />
<glyph unicode="s" horiz-adv-x="1007" d="M84 713q6 94 59.5 148t127 80t155.5 29q27 1 53 1q51 0 94 -4q78 -8 140.5 -23.5t109.5 -32.5q53 -20 99 -41q-8 -78 -33 -102q-21 -20 -55 -19q-6 1 -13 1q-43 4 -106.5 24.5t-147.5 28.5q-41 4 -77 4q-70 1 -120 -15q-69 -21 -70 -72q0 -5 1 -11q4 -33 53 -55.5 t122 -43t155 -45t149 -63.5q68 -38 110 -96q35 -48 35 -117q0 -13 -1 -27q-10 -94 -62.5 -151.5t-125 -87t-154.5 -36.5q-44 -4 -84 -4q-34 0 -64 3q-78 6 -141.5 22.5t-110.5 32.5q-53 20 -96 41q8 78 32 102q21 20 56 20q6 0 12 -1q43 -4 106.5 -24.5t147.5 -28.5 q31 -3 59 -3q81 -1 135 25q71 34 71 93q-1 41 -51 67q-48 24 -119.5 45.5t-152.5 45t-149.5 59.5t-111.5 92q-38 49 -38 119q0 10 1 20z" />
<glyph unicode="t" horiz-adv-x="622" d="M102 162v1157h72q37 0 67.5 -6t54 -24.5t36 -50.5t12.5 -81v-203h258q0 -37 -6 -67.5t-24.5 -53t-50.5 -35t-81 -12.5h-96v-786h-72q-37 0 -67.5 6t-54 24.5t-36 50.5t-12.5 81z" />
<glyph unicode="u" horiz-adv-x="1105" d="M82 477v477h72q37 0 67.5 -6t54 -23.5t36 -49t12.5 -80.5v-306q0 -96 15 -157.5t43 -98t64.5 -52t79.5 -17.5h11l75 11q43 13 76 49t53.5 94.5t20.5 148.5v487h72q37 0 67.5 -6t54 -23.5t36 -49t12.5 -80.5v-795h-72q-59 0 -102.5 18.5t-59.5 71.5q-10 -8 -30.5 -24.5 t-49 -34t-66.5 -30.5t-81 -17q-15 -1 -31 -1q-65 1 -132 21q-83 26 -148.5 86t-107.5 156t-42 231z" />
<glyph unicode="v" horiz-adv-x="1038" d="M20 954q50 18 96 18q12 0 23 -1q47 -4 93.5 -37t68.5 -117q43 -168 82 -281.5t70 -185.5q35 -82 65 -135q27 45 62 127q29 70 68.5 185.5t88.5 289.5q23 84 70 117t94 37q11 1 22 1q44 0 95 -18q-4 -16 -10 -34q-4 -16 -9.5 -35t-11.5 -39q-23 -80 -52.5 -178.5 t-66.5 -199.5t-80 -199.5t-88 -178.5q-35 -63 -86 -83.5t-98 -22.5h-11q-50 0 -104 16q-61 70 -113 176.5t-97.5 224t-80 235.5t-61.5 210q-6 20 -11 38.5t-9 35.5q-6 18 -9 34z" />
<glyph unicode="w" horiz-adv-x="1519" d="M20 954q48 18 92 18q11 0 23 -1q45 -4 92 -37t72 -117q47 -162 80 -275.5t55 -185.5q25 -84 43 -141l47 141q25 74 62 187.5t86 273.5q25 84 65.5 116t81.5 36q10 1 21 1q37 0 78 -16q-4 -16 -11 -34q-4 -16 -9 -35t-11 -39q-4 -12 -10.5 -41t-10.5 -43 q43 -154 76 -258.5t55 -169.5q25 -76 45 -119q18 57 43 141q23 72 55 185.5t79 275.5q25 84 70.5 117t92.5 37q11 1 22 1q44 0 95 -18q-2 -16 -8 -34q-4 -16 -10 -35t-11 -39q-23 -80 -50 -176.5t-60 -195.5t-66.5 -198.5t-68.5 -185.5q-29 -68 -79 -90.5t-99 -22.5 q-57 0 -123 23q-20 37 -42 89t-43.5 110.5t-43 121t-41.5 119.5q-29 -82 -56.5 -180t-54.5 -170q-25 -68 -72 -90.5t-94 -22.5q-55 0 -119 23q-43 74 -87 180.5t-85 223t-76.5 233.5t-60.5 209q-6 20 -11 38.5t-9 35.5q-6 18 -9 34z" />
<glyph unicode="x" horiz-adv-x="1028" d="M64 794q-2 13 -1 25q0 43 21 72q31 43 96 70l269 -318q33 37 70.5 76t71.5 73.5t60.5 61.5t38.5 37q60 59 112 65q12 1 23 1q37 0 64 -15q41 -23 74 -68l-359 -387q86 -94 166 -176q33 -37 68.5 -73.5t68.5 -71.5t61.5 -65.5t49.5 -53.5q-20 -27 -54 -45t-92 -18 q-45 0 -83.5 19.5t-74.5 49t-71 67.5t-72 75q-20 23 -45.5 49t-52.5 55l-289 -315q-59 33 -88 75q-27 34 -27 85q0 53 64 114q37 37 72 73t61 64q31 33 58 62l-168 190q-84 87 -92 147z" />
<glyph unicode="y" horiz-adv-x="1024" d="M20 958q49 12 94 12q9 0 19 -1q47 -4 94 -27.5t76 -87.5q72 -166 138.5 -269.5t97.5 -144.5q43 86 87 179.5t89 197.5q35 84 85 117t95 37q11 1 22 1q43 0 87 -18q-37 -102 -93.5 -236t-127 -282.5t-156.5 -302t-183 -295.5q-43 -63 -97 -87.5t-103 -29.5q-16 -2 -33 -2 q-41 0 -84 11q39 55 86 129q41 63 96.5 156.5t122.5 217.5q-66 68 -122 147t-102 162t-84 166t-69 160q-6 16 -13 33t-11 29q-6 14 -11 28z" />
<glyph unicode="z" horiz-adv-x="1075" d="M82 100v8q0 44 18 96q20 58 80 122q20 20 67.5 61t109 90t128 102.5t124 98.5t97 75.5t50.5 34.5h-592q0 37 6 68t24.5 54.5t50 35.5t81.5 12h645q22 -45 22 -96t-20.5 -108.5t-79.5 -118.5q-20 -20 -67.5 -61.5t-109 -91.5t-128 -103t-122.5 -98t-97 -76t-50 -35h654 q0 -37 -6 -67.5t-24.5 -54t-50.5 -36t-81 -12.5h-707q-23 47 -22 100z" />
<glyph unicode="&#xab;" horiz-adv-x="1224" d="M100 475l441 477q63 -43 90 -96q12 -23 17 -51.5t-1 -60t-26.5 -69.5t-59.5 -79l-125 -131q31 -27 67 -58.5t70 -62.5q43 -41 67 -77t33 -67.5t5 -59t-14 -50.5q-25 -53 -86 -94zM573 475l443 477q61 -43 88 -96q12 -23 17 -51.5t-1 -60t-26.5 -69.5t-59.5 -79l-123 -131 q29 -27 65 -58.5t71 -62.5q43 -41 66.5 -77t31.5 -67.5t5 -59t-13 -50.5q-25 -53 -84 -94z" />
<glyph unicode="&#xad;" horiz-adv-x="989" d="M102 397q0 37 6.5 68t25 54.5t50 35.5t80.5 12h623q0 -37 -6.5 -67.5t-24.5 -54t-50 -36t-81 -12.5h-623z" />
<glyph unicode="&#xbb;" horiz-adv-x="1224" d="M74 140.5q-4 27.5 5 59t32.5 67.5t66.5 77q72 66 137 121l-125 131q-41 41 -60 79t-25.5 69.5t-1 60.5t17.5 51q27 53 88 96l442 -477l-477 -479q-61 41 -86 94q-10 23 -14 50.5zM547 140.5q-4 27.5 5 59t32.5 67.5t66.5 77q35 31 72 62.5t65 58.5l-122 131 q-41 41 -61.5 79t-27 69.5t-1 60.5t17.5 51q27 53 90 96l440 -477l-477 -479q-61 41 -86 94q-10 23 -14 50.5z" />
<glyph unicode="&#xc0;" horiz-adv-x="1280" d="M43 83q6 -32 25.5 -50.5t49 -25.5t66.5 -7h103q16 86 34.5 167t36.5 157h564q18 -76 36.5 -157t34.5 -167h103q37 0 66.5 7t49 25.5t25.5 50.5t-6 79q-66 262 -145.5 473t-149.5 364q-82 178 -164 320q-70 12 -133 4q-53 -6 -108.5 -30.5t-86.5 -84.5q-35 -68 -84 -170 t-103 -235t-108.5 -295t-99.5 -346q-12 -47 -6 -79zM408 494q41 141 82.5 256.5t76.5 197.5q39 96 74 170q37 -74 74 -170q33 -82 73.5 -197.5t83.5 -256.5h-464zM432.5 1626q-16.5 43 16.5 76q39 37 93 16.5t110.5 -66.5t111.5 -102.5t98 -91.5q-117 -4 -208 21.5 t-148 64.5t-73.5 82z" />
<glyph unicode="&#xc1;" horiz-adv-x="1280" d="M43 83q-6 32 6 79q45 184 99.5 346t108.5 295t103.5 235.5t83.5 169.5q31 59 86.5 84t108.5 31q63 8 133 -4q82 -141 164 -320q70 -154 149.5 -364.5t145.5 -472.5q12 -47 6 -79t-25.5 -50.5t-49 -25.5t-66.5 -7h-103q-16 86 -34.5 167t-36.5 157h-564 q-18 -76 -36.5 -157t-34.5 -167h-103q-37 0 -66.5 7t-49 25.5t-25.5 50.5zM381 1458q43 35 98.5 91.5t112.5 102.5t110.5 66.5t92.5 -16.5q33 -33 16.5 -76t-74 -82t-148.5 -64.5t-208 -21.5zM408 494h464q-43 141 -83.5 256.5t-73.5 197.5q-37 96 -74 170q-35 -74 -74 -170 q-35 -82 -76.5 -197.5t-82.5 -256.5z" />
<glyph unicode="&#xc2;" horiz-adv-x="1280" d="M43 83q6 -32 25.5 -50.5t49 -25.5t66.5 -7h103q16 86 34.5 167t36.5 157h564q18 -76 36.5 -157t34.5 -167h103q37 0 66.5 7t49 25.5t25.5 50.5t-6 79q-66 262 -145.5 473t-149.5 364q-82 178 -164 320q-70 12 -133 4q-53 -6 -108.5 -30.5t-86.5 -84.5q-35 -68 -84 -170 t-103 -235t-108.5 -295t-99.5 -346q-12 -47 -6 -79zM356 1458q0 16 1 26.5t5.5 19.5t15.5 19.5t34 26.5l245 201l246 -201q20 -16 31.5 -26.5t16.5 -19.5t6 -19.5t1 -26.5q-70 2 -129 12q-51 10 -100 30t-72 59q-23 -39 -71.5 -58.5t-100.5 -30.5q-59 -10 -129 -12zM408 494 q41 141 82.5 256.5t76.5 197.5q39 96 74 170q37 -74 74 -170q33 -82 73.5 -197.5t83.5 -256.5h-464z" />
<glyph unicode="&#xc3;" horiz-adv-x="1280" d="M43 83q-6 32 6 79q45 184 99.5 346t108.5 295t103.5 235.5t83.5 169.5q31 59 86.5 84t108.5 31q63 8 133 -4q82 -141 164 -320q70 -154 149.5 -364.5t145.5 -472.5q12 -47 6 -79t-25.5 -50.5t-49 -25.5t-66.5 -7h-103q-16 86 -34.5 167t-36.5 157h-564 q-18 -76 -36.5 -157t-34.5 -167h-103q-37 0 -66.5 7t-49 25.5t-25.5 50.5zM315 1591q39 37 88 64q41 23 97.5 38t122.5 5q51 -8 91 -29.5t76.5 -34t73.5 -6.5t80 53l2 -32q-29 -63 -72 -105q-18 -18 -41.5 -33.5t-53 -23.5t-65.5 -8t-77 14q-35 12 -65.5 28.5t-66.5 29 t-80 15.5t-108 -14zM408 494h464q-43 141 -83.5 256.5t-73.5 197.5q-37 96 -74 170q-35 -74 -74 -170q-35 -82 -76.5 -197.5t-82.5 -256.5z" />
<glyph unicode="&#xc4;" horiz-adv-x="1280" d="M43 83q6 -32 25.5 -50.5t49 -25.5t66.5 -7h103q16 86 34.5 167t36.5 157h564q18 -76 36.5 -157t34.5 -167h103q37 0 66.5 7t49 25.5t25.5 50.5t-6 79q-66 262 -145.5 473t-149.5 364q-82 178 -164 320q-70 12 -133 4q-53 -6 -108.5 -30.5t-86.5 -84.5q-35 -68 -84 -170 t-103 -235t-108.5 -295t-99.5 -346q-12 -47 -6 -79zM334 1536q0 49 34.5 84t84.5 35q51 0 86.5 -35t35.5 -84q0 -51 -35.5 -87t-86.5 -36q-49 0 -84 36t-35 87zM408 494q41 141 82.5 256.5t76.5 197.5q39 96 74 170q37 -74 74 -170q33 -82 73.5 -197.5t83.5 -256.5h-464z M690 1536q0 49 35 84t84 35q51 0 87 -35t36 -84q0 -51 -36 -87t-87 -36q-49 0 -84 36t-35 87z" />
<glyph unicode="&#xc7;" horiz-adv-x="1140" d="M61 649q0 135 46.5 257t130.5 213t203.5 144.5t265.5 53.5q78 0 147.5 -10.5t124.5 -22.5q63 -14 121 -31q0 -80 -29 -105.5t-79 -24.5t-119.5 15.5t-155.5 14.5q-96 0 -165 -46t-114 -119t-66.5 -163t-21.5 -176t21.5 -175t66.5 -161.5t114 -119t165 -46.5 q86 0 155.5 14.5t119.5 15.5t79 -24.5t29 -105.5q-47 -16 -101 -29q-47 -10 -108.5 -19t-128.5 -13v-45q25 -6 47 -19q18 -10 33.5 -30.5t15.5 -51.5q0 -70 -46 -99.5t-101 -39.5q-66 -10 -146 -2v94q41 -8 76 -6q29 2 52.5 12.5t27.5 40.5q2 23 -10.5 36t-28.5 20 q-18 8 -43 10v82q-131 12 -237.5 69.5t-182.5 146.5t-117 203.5t-41 241.5z" />
<glyph unicode="&#xc8;" horiz-adv-x="1085" d="M102 346q0 -90 29 -155.5t93.5 -107.5t169 -62.5t257.5 -20.5h211q49 0 81 12.5t50.5 36t24.5 54t6 67.5h-383q-115 0 -175 16.5t-87 42t-30 58t-3 67.5v269h367q49 0 80.5 12t50 35.5t24.5 54.5t6 68h-528v356h471q49 0 81 12.5t50.5 36t24.5 54t6 67.5h-639 q-47 0 -90 -7t-76 -28.5t-52.5 -62.5t-19.5 -111v-764zM370.5 1626q-16.5 43 16.5 76q39 37 93.5 16.5t110.5 -66.5t111.5 -102.5t98.5 -91.5q-117 -4 -208 21.5t-148.5 64.5t-74 82z" />
<glyph unicode="&#xc9;" horiz-adv-x="1085" d="M102 346v764q0 70 19.5 111t52.5 62.5t76 28.5t90 7h639q0 -37 -6 -67.5t-24.5 -54t-50.5 -36t-81 -12.5h-471v-356h528q0 -37 -6 -68t-24.5 -54.5t-50 -35.5t-80.5 -12h-367v-269q0 -35 3 -67.5t30 -58t87 -42t175 -16.5h383q0 -37 -6 -67.5t-24.5 -54t-50.5 -36 t-81 -12.5h-211q-154 0 -258 20.5t-168.5 62.5t-93.5 107.5t-29 155.5zM381 1458q43 35 98.5 91.5t112.5 102.5t110.5 66.5t92.5 -16.5q33 -33 16.5 -76t-74 -82t-148.5 -64.5t-208 -21.5z" />
<glyph unicode="&#xca;" horiz-adv-x="1085" d="M102 346q0 -90 29 -155.5t93.5 -107.5t169 -62.5t257.5 -20.5h211q49 0 81 12.5t50.5 36t24.5 54t6 67.5h-383q-115 0 -175 16.5t-87 42t-30 58t-3 67.5v269h367q49 0 80.5 12t50 35.5t24.5 54.5t6 68h-528v356h471q49 0 81 12.5t50.5 36t24.5 54t6 67.5h-639 q-47 0 -90 -7t-76 -28.5t-52.5 -62.5t-19.5 -111v-764zM317 1458q0 16 1 26.5t5.5 19.5t15.5 19.5t34 26.5l245 201l246 -201q20 -16 31.5 -26.5t17 -19.5t6.5 -19.5t1 -26.5q-70 2 -129 12q-51 10 -100.5 30t-72.5 59q-23 -39 -71.5 -58.5t-100.5 -30.5q-59 -10 -129 -12z " />
<glyph unicode="&#xcb;" horiz-adv-x="1085" d="M102 346q0 -90 29 -155.5t93.5 -107.5t169 -62.5t257.5 -20.5h211q49 0 81 12.5t50.5 36t24.5 54t6 67.5h-383q-115 0 -175 16.5t-87 42t-30 58t-3 67.5v269h367q49 0 80.5 12t50 35.5t24.5 54.5t6 68h-528v356h471q49 0 81 12.5t50.5 36t24.5 54t6 67.5h-639 q-47 0 -90 -7t-76 -28.5t-52.5 -62.5t-19.5 -111v-764zM313 1536q0 49 35 84t84 35q51 0 87 -35t36 -84q0 -51 -36 -87t-87 -36q-49 0 -84 36t-35 87zM670 1536q0 49 34.5 84t83.5 35q51 0 87 -35t36 -84q0 -51 -36 -87t-87 -36q-49 0 -83.5 36t-34.5 87z" />
<glyph unicode="&#xcc;" horiz-adv-x="448" d="M6.5 1626q-16.5 43 16.5 76q39 37 93 16.5t110.5 -66.5t111.5 -102.5t98 -91.5q-117 -4 -208 21.5t-148 64.5t-73.5 82zM102 162q0 -49 12.5 -81t36 -50.5t54.5 -24.5t67 -6h74l-2 1157q0 49 -12.5 81t-36 50.5t-54 24.5t-67.5 6h-72v-1157z" />
<glyph unicode="&#xcd;" horiz-adv-x="448" d="M12 1458q43 35 98.5 91.5t113 102.5t110.5 66.5t92 -16.5q33 -33 16.5 -76t-74 -82t-148.5 -64.5t-208 -21.5zM102 162v1157h72q37 0 67.5 -6t54 -24.5t36 -50.5t12.5 -81l2 -1157h-74q-37 0 -67.5 6t-54 24.5t-36 50.5t-12.5 81z" />
<glyph unicode="&#xce;" horiz-adv-x="448" d="M-78 1458q0 16 1 26.5t5 19.5t15.5 19.5t33.5 26.5l246 201l246 -201q20 -16 31.5 -26.5t16.5 -19.5t6 -19.5t1 -26.5q-70 2 -129 12q-51 10 -100 30t-72 59q-23 -39 -72 -58.5t-100 -30.5q-59 -10 -129 -12zM102 162q0 -49 12.5 -81t36 -50.5t54.5 -24.5t67 -6h74 l-2 1157q0 49 -12.5 81t-36 50.5t-54 24.5t-67.5 6h-72v-1157z" />
<glyph unicode="&#xcf;" horiz-adv-x="448" d="M-84 1536q0 49 35 84t84 35q51 0 87 -35t36 -84q0 -51 -36 -87t-87 -36q-49 0 -84 36t-35 87zM102 162q0 -49 12.5 -81t36 -50.5t54.5 -24.5t67 -6h74l-2 1157q0 49 -12.5 81t-36 50.5t-54 24.5t-67.5 6h-72v-1157zM272 1536q0 49 35 84t84 35q51 0 87 -35t36 -84 q0 -51 -36 -87t-87 -36q-49 0 -84 36t-35 87z" />
<glyph unicode="&#xd1;" horiz-adv-x="1355" d="M102 162v1157h99q41 0 82 -10q66 -18 124 -66.5t130 -155.5q18 -31 48.5 -77.5t67.5 -103t78 -120t82 -124.5q94 -143 199 -310v967h71q37 0 68 -6t53.5 -24.5t34.5 -50.5t12 -81l2 -1157h-98q-23 0 -43 2t-39 8q-66 18 -124 65.5t-128 153.5q-18 31 -49 78t-67.5 104.5 t-78.5 121t-81 124.5q-94 143 -199 310v-967h-74q-37 0 -67.5 6t-54 24.5t-36 50.5t-12.5 81zM375 1591q39 37 88 64q41 23 97 38t122 5q51 -8 91 -29.5t77 -34t74 -6.5t80 53l2 -32q-29 -63 -72 -105q-18 -18 -42 -33.5t-53.5 -23.5t-65.5 -8t-77 14q-35 12 -65.5 28.5 t-66.5 29t-80 15.5t-107 -14z" />
<glyph unicode="&#xd2;" horiz-adv-x="1433" d="M61 651q0 -135 48.5 -256t134.5 -212t206.5 -144t266.5 -53q145 0 266 53t207 144t134 212t48 256t-48 257t-134 213t-207 144.5t-266 53.5t-266 -53.5t-207 -144.5t-134.5 -213t-48.5 -257zM350 682q14 158 62.5 252t110 144t126 64.5t111.5 10.5t108.5 -28.5t113.5 -85 t82.5 -162t18.5 -259.5q-14 -158 -62 -252t-110.5 -144t-127 -63.5t-111.5 -8.5q-47 4 -108.5 28.5t-114 84t-83 160.5t-16.5 259zM477.5 1626q-16.5 43 16.5 76q39 37 93 16.5t110.5 -66.5t111.5 -102.5t98 -91.5q-117 -4 -208 21.5t-148 64.5t-73.5 82z" />
<glyph unicode="&#xd3;" horiz-adv-x="1433" d="M61 651q0 135 48.5 257t134.5 213t207 144.5t266 53.5t266 -53.5t207 -144.5t134 -213t48 -257t-48 -256t-134 -212t-207 -144t-266 -53t-266 53t-207 144t-134.5 212t-48.5 256zM350 682q-14 -158 16.5 -259t83 -160.5t114 -84t108.5 -28.5t111.5 9t127 63t110.5 144 t62 252q12 158 -18.5 259.5t-82.5 162t-113.5 85t-108.5 28.5t-111.5 -10.5t-126 -64.5t-109.5 -144t-63 -252zM469 1458q43 35 98.5 91.5t112.5 102.5t110.5 66.5t92.5 -16.5q33 -33 16.5 -76t-74 -82t-148.5 -64.5t-208 -21.5z" />
<glyph unicode="&#xd4;" horiz-adv-x="1433" d="M61 651q0 -135 48.5 -256t134.5 -212t206.5 -144t266.5 -53q145 0 266 53t207 144t134 212t48 256t-48 257t-134 213t-207 144.5t-266 53.5t-266 -53.5t-207 -144.5t-134.5 -213t-48.5 -257zM350 682q14 158 62.5 252t110 144t126 64.5t111.5 10.5t108.5 -28.5t113.5 -85 t82.5 -162t18.5 -259.5q-14 -158 -62 -252t-110.5 -144t-127 -63.5t-111.5 -8.5q-47 4 -108.5 28.5t-114 84t-83 160.5t-16.5 259zM416 1458q0 16 1 26.5t5 19.5t15.5 19.5t33.5 26.5l246 201l246 -201q20 -16 31.5 -26.5t16.5 -19.5t6 -19.5t1 -26.5q-70 2 -129 12 q-51 10 -100.5 30t-71.5 59q-23 -39 -72 -58.5t-100 -30.5q-59 -10 -129 -12z" />
<glyph unicode="&#xd5;" horiz-adv-x="1433" d="M61 651q0 135 48.5 257t134.5 213t207 144.5t266 53.5t266 -53.5t207 -144.5t134 -213t48 -257t-48 -256t-134 -212t-207 -144t-266 -53t-266 53t-207 144t-134.5 212t-48.5 256zM350 682q-14 -158 16.5 -259t83 -160.5t114 -84t108.5 -28.5t111.5 9t127 63t110.5 144 t62 252q12 158 -18.5 259.5t-82.5 162t-113.5 85t-108.5 28.5t-111.5 -10.5t-126 -64.5t-109.5 -144t-63 -252zM395 1591q39 37 88 64q41 23 97.5 38t121.5 5q51 -8 91.5 -29.5t77 -34t73.5 -6.5t80 53l2 -32q-29 -63 -72 -105q-18 -18 -41.5 -33.5t-53.5 -23.5t-65.5 -8 t-76.5 14q-35 12 -65.5 28.5t-66.5 29t-80 15.5t-108 -14z" />
<glyph unicode="&#xd6;" horiz-adv-x="1433" d="M61 651q0 -135 48.5 -256t134.5 -212t206.5 -144t266.5 -53q145 0 266 53t207 144t134 212t48 256t-48 257t-134 213t-207 144.5t-266 53.5t-266 -53.5t-207 -144.5t-134.5 -213t-48.5 -257zM350 682q14 158 62.5 252t110 144t126 64.5t111.5 10.5t108.5 -28.5t113.5 -85 t82.5 -162t18.5 -259.5q-14 -158 -62 -252t-110.5 -144t-127 -63.5t-111.5 -8.5q-47 4 -108.5 28.5t-114 84t-83 160.5t-16.5 259zM414 1536q0 49 34.5 84t83.5 35q51 0 87 -35t36 -84q0 -51 -36 -87t-87 -36q-49 0 -83.5 36t-34.5 87zM770 1536q0 49 35 84t84 35 q51 0 87 -35t36 -84q0 -51 -36 -87t-87 -36q-49 0 -84 36t-35 87z" />
<glyph unicode="&#xd9;" horiz-adv-x="1304" d="M82 651q0 -135 31.5 -256t100.5 -212t176.5 -144t260.5 -53q154 0 262.5 53t177 144t100.5 212t32 256v506q0 49 -12.5 81t-36 50.5t-54 24.5t-67.5 6h-95v-668q0 -158 -27.5 -256t-72.5 -153.5t-99 -75t-108 -19.5q-53 0 -107.5 19.5t-98.5 75t-72.5 154t-28.5 255.5 v506q0 49 -12.5 81t-35 50.5t-53 24.5t-67.5 6h-94v-668zM389.5 1626q-16.5 43 16.5 76q39 37 93 16.5t110.5 -66.5t111.5 -102.5t98 -91.5q-117 -4 -208 21.5t-148 64.5t-73.5 82z" />
<glyph unicode="&#xda;" horiz-adv-x="1304" d="M82 651v668h94q37 0 67.5 -6t53 -24.5t35 -50.5t12.5 -81v-506q0 -158 28.5 -256t72.5 -153.5t98.5 -75t107.5 -19.5t107.5 19.5t99.5 75t72.5 154t27.5 255.5v668h95q37 0 67.5 -6t54 -24.5t36 -50.5t12.5 -81v-506q0 -135 -32 -256t-100.5 -212t-177 -144t-262.5 -53 t-261 53t-176 144t-100.5 212t-31.5 256zM424 1458q43 35 98.5 91.5t112.5 102.5t110.5 66.5t92.5 -16.5q33 -33 16.5 -76t-74 -82t-148.5 -64.5t-208 -21.5z" />
<glyph unicode="&#xdb;" horiz-adv-x="1304" d="M82 651q0 -135 31.5 -256t100.5 -212t176.5 -144t260.5 -53q154 0 262.5 53t177 144t100.5 212t32 256v506q0 49 -12.5 81t-36 50.5t-54 24.5t-67.5 6h-95v-668q0 -158 -27.5 -256t-72.5 -153.5t-99 -75t-108 -19.5q-53 0 -107.5 19.5t-98.5 75t-72.5 154t-28.5 255.5 v506q0 49 -12.5 81t-35 50.5t-53 24.5t-67.5 6h-94v-668zM354 1458q0 16 1 26.5t5.5 19.5t15.5 19.5t34 26.5l245 201l246 -201q20 -16 31.5 -26.5t16.5 -19.5t6 -19.5t1 -26.5q-70 2 -129 12q-51 10 -100 30t-72 59q-23 -39 -71.5 -58.5t-100.5 -30.5q-59 -10 -129 -12z " />
<glyph unicode="&#xdc;" horiz-adv-x="1304" d="M82 651q0 -135 31.5 -256t100.5 -212t176.5 -144t260.5 -53q154 0 262.5 53t177 144t100.5 212t32 256v506q0 49 -12.5 81t-36 50.5t-54 24.5t-67.5 6h-95v-668q0 -158 -27.5 -256t-72.5 -153.5t-99 -75t-108 -19.5q-53 0 -107.5 19.5t-98.5 75t-72.5 154t-28.5 255.5 v506q0 49 -12.5 81t-35 50.5t-53 24.5t-67.5 6h-94v-668zM334 1536q0 49 34.5 84t84.5 35q51 0 86.5 -35t35.5 -84q0 -51 -35.5 -87t-86.5 -36q-49 0 -84 36t-35 87zM690 1536q0 49 35 84t84 35q51 0 87 -35t36 -84q0 -51 -36 -87t-87 -36q-49 0 -84 36t-35 87z" />
<glyph unicode="&#xdd;" horiz-adv-x="1208" d="M42 1161q-3 31 4 54.5t20 41.5q29 43 88 68l395 -522q88 117 160 213q31 41 60.5 81t55 71.5t43 55t23.5 29.5q57 63 106.5 70.5t87.5 -8.5q43 -20 82 -68l-495 -657v-590h-74q-37 0 -67.5 6t-54 24.5t-36 50.5t-12.5 81v420q-55 74 -105.5 140t-92.5 123.5t-73.5 99.5 t-47.5 67q-33 45 -48.5 81.5t-18.5 67.5zM403 1458q43 35 98.5 91.5t113 102.5t110.5 66.5t92 -16.5q33 -33 16.5 -76t-74 -82t-148.5 -64.5t-208 -21.5z" />
<glyph unicode="&#xe0;" horiz-adv-x="974" d="M51 311q-2 -86 30 -148.5t87 -103.5t127 -59t147 -16q92 4 145.5 35.5t78.5 60.5q18 -47 59 -63.5t96 -16.5h72v578q0 152 -43 232.5t-104.5 116.5t-131 41t-122.5 5q-78 0 -143.5 -10.5t-112.5 -22.5q-55 -14 -101 -31q0 -80 22.5 -105.5t65.5 -24.5t107.5 14.5 t150.5 13.5q90 0 130 -37t53 -82q14 -53 4 -117q-287 45 -450 -17t-167 -243zM274 301q0 41 16.5 67.5t42 44t55.5 24.5t58 9q47 2 88 -2t70 -8q35 -6 64 -14q2 -78 -15.5 -128t-49.5 -79t-73 -40t-84 -11q-35 0 -66.5 6t-55 21.5t-37 42t-13.5 67.5zM297.5 1272 q-17.5 43 17.5 76q39 37 92.5 16t110.5 -67t112.5 -102t98.5 -89q-117 -4 -209 21.5t-148.5 63.5t-74 81z" />
<glyph unicode="&#xe1;" horiz-adv-x="974" d="M51 311q4 180 167 242.5t450 17.5q10 63 -4 117q-12 45 -52.5 82t-130.5 37q-86 0 -150.5 -13.5t-107.5 -14.5t-65.5 24.5t-22.5 105.5q45 16 101 31q47 12 112.5 22.5t143.5 10.5q53 0 122.5 -5t131 -41t104.5 -117t43 -232v-578h-72q-55 0 -96 16.5t-59 63.5 q-25 -29 -78 -60.5t-146 -35.5q-76 -2 -147.5 16t-126.5 59t-87 103.5t-30 148.5zM270 1106q43 33 98.5 89t113 102t110.5 67t92 -16q33 -33 17.5 -76t-73 -81t-149.5 -63.5t-209 -21.5zM274 301q0 -41 13.5 -67.5t37 -42t55 -21.5t66.5 -6q43 0 84 11t73 40t49.5 79 t15.5 128q-29 8 -64 14q-29 4 -69.5 8.5t-88.5 1.5q-29 -2 -58.5 -9t-55 -24.5t-42 -44t-16.5 -67.5z" />
<glyph unicode="&#xe2;" horiz-adv-x="974" d="M51 311q-2 -86 30 -148.5t87 -103.5t127 -59t147 -16q92 4 145.5 35.5t78.5 60.5q18 -47 59 -63.5t96 -16.5h72v578q0 152 -43 232.5t-104.5 116.5t-131 41t-122.5 5q-78 0 -143.5 -10.5t-112.5 -22.5q-55 -14 -101 -31q0 -80 22.5 -105.5t65.5 -24.5t107.5 14.5 t150.5 13.5q90 0 130 -37t53 -82q14 -53 4 -117q-287 45 -450 -17t-167 -243zM213 1106q0 14 1 24.5t5 19.5t15.5 19.5t31.5 26.5l248 203l246 -203q20 -16 31.5 -26.5t15.5 -19.5t5 -19.5t1 -24.5q-68 0 -127 10q-51 10 -100 29.5t-72 60.5q-23 -41 -73 -60.5t-101 -29.5 q-59 -10 -127 -10zM274 301q0 41 16.5 67.5t42 44t55.5 24.5t58 9q47 2 88 -2t70 -8q35 -6 64 -14q2 -78 -15.5 -128t-49.5 -79t-73 -40t-84 -11q-35 0 -66.5 6t-55 21.5t-37 42t-13.5 67.5z" />
<glyph unicode="&#xe3;" horiz-adv-x="974" d="M51 311q4 180 167 242.5t450 17.5q10 63 -4 117q-12 45 -52.5 82t-130.5 37q-86 0 -150.5 -13.5t-107.5 -14.5t-65.5 24.5t-22.5 105.5q45 16 101 31q47 12 112.5 22.5t143.5 10.5q53 0 122.5 -5t131 -41t104.5 -117t43 -232v-578h-72q-55 0 -96 16.5t-59 63.5 q-25 -29 -78 -60.5t-146 -35.5q-76 -2 -147.5 16t-126.5 59t-87 103.5t-30 148.5zM184 1237q39 37 88 63q41 23 97.5 39.5t122.5 6.5q51 -8 91 -30t75.5 -34t72.5 -6t80 53l2 -33q-27 -63 -70 -104q-37 -35 -96 -57.5t-143 6.5q-35 12 -64.5 28.5t-65.5 28.5t-80 15.5 t-108 -15.5zM274 301q0 -41 13.5 -67.5t37 -42t55 -21.5t66.5 -6q43 0 84 11t73 40t49.5 79t15.5 128q-29 8 -64 14q-29 4 -69.5 8.5t-88.5 1.5q-29 -2 -58.5 -9t-55 -24.5t-42 -44t-16.5 -67.5z" />
<glyph unicode="&#xe4;" horiz-adv-x="974" d="M51 311q-2 -86 30 -148.5t87 -103.5t127 -59t147 -16q92 4 145.5 35.5t78.5 60.5q18 -47 59 -63.5t96 -16.5h72v578q0 152 -43 232.5t-104.5 116.5t-131 41t-122.5 5q-78 0 -143.5 -10.5t-112.5 -22.5q-55 -14 -101 -31q0 -80 22.5 -105.5t65.5 -24.5t107.5 14.5 t150.5 13.5q90 0 130 -37t53 -82q14 -53 4 -117q-287 45 -450 -17t-167 -243zM213 1182q0 49 36 85t85 36t85 -36t36 -85t-36 -85t-85 -36t-85 36t-36 85zM274 301q0 41 16.5 67.5t42 44t55.5 24.5t58 9q47 2 88 -2t70 -8q35 -6 64 -14q2 -78 -15.5 -128t-49.5 -79t-73 -40 t-84 -11q-35 0 -66.5 6t-55 21.5t-37 42t-13.5 67.5zM569 1182q0 49 36 85t85 36t85 -36t36 -85t-36 -85t-85 -36t-85 36t-36 85z" />
<glyph unicode="&#xe7;" horiz-adv-x="927" d="M61 477q0 135 39 230.5t103.5 154t147.5 85t169 26.5q78 0 142.5 -10.5t111.5 -22.5q55 -14 103 -31q0 -80 -23 -105.5t-66 -24.5t-107.5 14.5t-150.5 13.5q-96 0 -157.5 -78t-61.5 -252t60.5 -252t158.5 -78q86 0 150.5 14.5t107.5 15.5t66 -24.5t23 -105.5 q-37 -16 -84 -29q-41 -10 -96.5 -19t-121.5 -13v-45q27 -6 50 -19q18 -10 32.5 -30.5t14.5 -51.5q0 -70 -46 -99.5t-102 -39.5q-66 -10 -145 -2v94q41 -8 76 -6q29 2 52 12.5t28 40.5q2 23 -10.5 36t-28.5 20q-18 8 -43 10v82q-78 8 -149 40.5t-124 91t-86 146.5t-33 211z " />
<glyph unicode="&#xe8;" horiz-adv-x="1019" d="M61 477q0 -135 40 -229t104.5 -152.5t147.5 -85t169 -26.5q92 0 163 9t120 21q57 14 100 33q2 68 -23.5 92.5t-74.5 28.5t-119 -4t-156 -8q-86 2 -143 57t-74 182q184 -41 306 -32.5t196 48.5t105.5 104t33.5 138q4 82 -33.5 144.5t-100 103.5t-141.5 59.5t-159 12.5 q-86 -6 -169 -34t-147.5 -85t-104.5 -149.5t-40 -227.5zM315 557q16 129 73.5 187.5t143.5 62.5q102 6 149.5 -42t39.5 -112q-6 -51 -39 -80.5t-86 -41t-125 -4.5t-156 30zM338.5 1272q-17.5 43 17.5 76q39 37 92.5 16t110.5 -67t112.5 -102t98.5 -89q-117 -4 -209 21.5 t-148.5 63.5t-74 81z" />
<glyph unicode="&#xe9;" horiz-adv-x="1019" d="M61 477q0 135 40 227.5t104.5 149.5t147.5 85t169 34q80 6 159 -12.5t141.5 -59.5t100 -103.5t33.5 -144.5q-2 -74 -33.5 -138t-105.5 -104t-195.5 -48.5t-306.5 32.5q16 -127 73.5 -182t143.5 -57q86 0 156 8t119 4t74.5 -28.5t23.5 -92.5q-43 -18 -100 -33 q-49 -12 -120 -21t-163 -9q-86 0 -169 26.5t-147.5 85t-104.5 152.5t-40 229zM311 1106q43 33 98.5 89t113 102t110.5 67t92 -16q33 -33 17.5 -76t-73 -81t-149.5 -63.5t-209 -21.5zM315 557q84 -23 156 -30t125 4.5t86 41t39 80.5q8 63 -39 111.5t-150 42.5 q-86 -4 -143.5 -62.5t-73.5 -187.5z" />
<glyph unicode="&#xea;" horiz-adv-x="1019" d="M61 477q0 -135 40 -229t104.5 -152.5t147.5 -85t169 -26.5q92 0 163 9t120 21q57 14 100 33q2 68 -23.5 92.5t-74.5 28.5t-119 -4t-156 -8q-86 2 -143 57t-74 182q184 -41 306 -32.5t196 48.5t105.5 104t33.5 138q4 82 -33.5 144.5t-100 103.5t-141.5 59.5t-159 12.5 q-86 -6 -169 -34t-147.5 -85t-104.5 -149.5t-40 -227.5zM254 1106q0 14 1 24.5t5 19.5t15.5 19.5t31.5 26.5l248 203l246 -203q20 -16 31.5 -26.5t15.5 -19.5t5 -19.5t1 -24.5q-68 0 -127 10q-51 10 -100 29.5t-72 60.5q-23 -41 -73 -60.5t-101 -29.5q-59 -10 -127 -10z M315 557q16 129 73.5 187.5t143.5 62.5q102 6 149.5 -42t39.5 -112q-6 -51 -39 -80.5t-86 -41t-125 -4.5t-156 30z" />
<glyph unicode="&#xeb;" horiz-adv-x="1019" d="M61 477q0 -135 40 -229t104.5 -152.5t147.5 -85t169 -26.5q92 0 163 9t120 21q57 14 100 33q2 68 -23.5 92.5t-74.5 28.5t-119 -4t-156 -8q-86 2 -143 57t-74 182q184 -41 306 -32.5t196 48.5t105.5 104t33.5 138q4 82 -33.5 144.5t-100 103.5t-141.5 59.5t-159 12.5 q-86 -6 -169 -34t-147.5 -85t-104.5 -149.5t-40 -227.5zM221 1182q0 49 36 85t85 36t85 -36t36 -85t-36 -85t-85 -36t-85 36t-36 85zM315 557q16 129 73.5 187.5t143.5 62.5q102 6 149.5 -42t39.5 -112q-6 -51 -39 -80.5t-86 -41t-125 -4.5t-156 30zM578 1182q0 49 35.5 85 t84.5 36t85 -36t36 -85t-36 -85t-85 -36t-84.5 36t-35.5 85z" />
<glyph unicode="&#xec;" d="M11.5 1272q-17.5 43 17.5 76q39 37 92 16t110.5 -67t112.5 -102t98 -89q-117 -4 -209 21.5t-148 63.5t-73.5 81zM102 162q0 -49 12.5 -81t36 -50.5t54.5 -24.5t67 -6h72v795q0 49 -12.5 80.5t-36 49t-54 23.5t-67.5 6h-72v-792z" />
<glyph unicode="&#xed;" d="M10 1106q43 33 98.5 89t113 102t110.5 67t92 -16q33 -33 17.5 -76t-73 -81t-149.5 -63.5t-209 -21.5zM102 162v792h72q37 0 67.5 -6t54 -23.5t36 -49t12.5 -80.5v-795h-72q-37 0 -67.5 6t-54 24.5t-36 50.5t-12.5 81z" />
<glyph unicode="&#xee;" d="M-74 1106q0 14 1 24.5t5.5 19.5t15.5 19.5t32 26.5l247 203l246 -203q20 -16 31.5 -26.5t15.5 -19.5t5 -19.5t1 -24.5q-68 0 -127 10q-51 10 -100 29.5t-72 60.5q-23 -41 -73 -60.5t-101 -29.5q-59 -10 -127 -10zM102 162q0 -49 12.5 -81t36 -50.5t54.5 -24.5t67 -6h72 v795q0 49 -12.5 80.5t-36 49t-54 23.5t-67.5 6h-72v-792z" />
<glyph unicode="&#xef;" d="M-72 1182q0 49 36 85t85 36t85 -36t36 -85t-36 -85t-85 -36t-85 36t-36 85zM102 162q0 -49 12.5 -81t36 -50.5t54.5 -24.5t67 -6h72v795q0 49 -12.5 80.5t-36 49t-54 23.5t-67.5 6h-72v-792zM285 1182q0 49 35.5 85t85.5 36q49 0 84.5 -36t35.5 -85t-35.5 -85t-84.5 -36 t-85 36t-36 85z" />
<glyph unicode="&#xf1;" horiz-adv-x="1105" d="M102 162v792h72q59 0 102 -17t60 -73q8 8 29.5 25.5t50 34t66.5 31t81 18.5q80 6 163 -19.5t148.5 -86t107.5 -158t42 -232.5v-477h-72q-37 0 -67.5 6t-54 24.5t-36 50.5t-12.5 81v305q0 94 -15 156.5t-43 99.5t-64.5 52.5t-79.5 17.5t-86 -12.5t-76 -49.5t-53.5 -94 t-20.5 -148v-489h-72q-37 0 -67.5 6t-54 24.5t-36 50.5t-12.5 81zM266 1237q39 37 88 63q41 23 97.5 39.5t121.5 6.5q51 -8 91.5 -30t76 -34t72.5 -6t80 53l2 -33q-27 -63 -70 -104q-37 -35 -96 -57.5t-143 6.5q-35 12 -64.5 28.5t-65.5 28.5t-80 15.5t-108 -15.5z" />
<glyph unicode="&#xf2;" horiz-adv-x="1044" d="M61 477q0 -102 36 -191t100 -157q63 -68 146 -106.5t179 -38.5q104 0 190.5 38.5t145.5 106.5t92 157t33 191q0 104 -36 193t-99 157q-61 66 -145.5 106t-180.5 40q-104 0 -190 -40t-146 -106q-59 -68 -92 -156.5t-33 -193.5zM313 498q8 98 37 158.5t64 91t72.5 40 t64.5 7.5t61.5 -17.5t64.5 -52.5t47 -101.5t9 -162.5q-10 -98 -37.5 -158.5t-63.5 -92.5t-72.5 -41t-63.5 -7t-63 17.5t-65.5 53t-47 102t-7.5 163.5zM320.5 1272q-17.5 43 17.5 76q39 37 92 16t110.5 -67t113 -102t98.5 -89q-117 -4 -209 21.5t-148.5 63.5t-74 81z" />
<glyph unicode="&#xf3;" horiz-adv-x="1044" d="M61 477q0 104 33 193.5t92 156.5q59 66 145.5 106t190.5 40q96 0 180.5 -40t145.5 -106q63 -68 99 -156.5t36 -193.5q0 -102 -32.5 -191t-92.5 -157q-59 -68 -145 -106.5t-191 -38.5q-96 0 -179 38.5t-146 106.5t-99.5 157t-36.5 191zM291 1106q43 33 98 89t112.5 102 t111 67t92.5 -16q33 -33 17.5 -76t-73 -81t-149.5 -63.5t-209 -21.5zM313 498q-10 -98 7.5 -163t47 -102.5t65.5 -53t63 -17.5t63.5 7t72.5 41t63.5 92t37.5 159q8 98 -9 162.5t-47 101.5t-64.5 52.5t-61.5 17.5t-64.5 -7.5t-72.5 -40t-63.5 -91t-37.5 -158.5z" />
<glyph unicode="&#xf4;" horiz-adv-x="1044" d="M61 477q0 -102 36 -191t100 -157q63 -68 146 -106.5t179 -38.5q104 0 190.5 38.5t145.5 106.5t92 157t33 191q0 104 -36 193t-99 157q-61 66 -145.5 106t-180.5 40q-104 0 -190 -40t-146 -106q-59 -68 -92 -156.5t-33 -193.5zM233 1106q0 14 1.5 24.5t5.5 19.5t15 19.5 t32 26.5l248 203l245 -203q20 -16 31.5 -26.5t15.5 -19.5t5.5 -19.5t1.5 -24.5q-68 0 -127 10q-51 10 -100.5 29.5t-71.5 60.5q-23 -41 -73 -60.5t-102 -29.5q-59 -10 -127 -10zM313 498q8 98 37 158.5t64 91t72.5 40t64.5 7.5t61.5 -17.5t64.5 -52.5t47 -101.5t9 -162.5 q-10 -98 -37.5 -158.5t-63.5 -92.5t-72.5 -41t-63.5 -7t-63 17.5t-65.5 53t-47 102t-7.5 163.5z" />
<glyph unicode="&#xf5;" horiz-adv-x="1044" d="M61 477q0 104 33 193.5t92 156.5q59 66 145.5 106t190.5 40q96 0 180.5 -40t145.5 -106q63 -68 99 -156.5t36 -193.5q0 -102 -32.5 -191t-92.5 -157q-59 -68 -145 -106.5t-191 -38.5q-96 0 -179 38.5t-146 106.5t-99.5 157t-36.5 191zM205 1237q39 37 88 63 q41 23 97 39.5t122 6.5q51 -8 91 -30t76 -34t72.5 -6t79.5 53l3 -33q-27 -63 -70 -104q-37 -35 -96.5 -57.5t-143.5 6.5q-35 12 -64.5 28.5t-65.5 28.5t-80 15.5t-107 -15.5zM313 498q-10 -98 7.5 -163t47 -102.5t65.5 -53t63 -17.5t63.5 7t72.5 41t63.5 92t37.5 159 q8 98 -9 162.5t-47 101.5t-64.5 52.5t-61.5 17.5t-64.5 -7.5t-72.5 -40t-63.5 -91t-37.5 -158.5z" />
<glyph unicode="&#xf6;" horiz-adv-x="1044" d="M61 477q0 -102 36 -191t100 -157q63 -68 146 -106.5t179 -38.5q104 0 190.5 38.5t145.5 106.5t92 157t33 191q0 104 -36 193t-99 157q-61 66 -145.5 106t-180.5 40q-104 0 -190 -40t-146 -106q-59 -68 -92 -156.5t-33 -193.5zM229 1182q0 49 36 85t85 36t85 -36t36 -85 t-36 -85t-85 -36t-85 36t-36 85zM313 498q8 98 37 158.5t64 91t72.5 40t64.5 7.5t61.5 -17.5t64.5 -52.5t47 -101.5t9 -162.5q-10 -98 -37.5 -158.5t-63.5 -92.5t-72.5 -41t-63.5 -7t-63 17.5t-65.5 53t-47 102t-7.5 163.5zM586 1182q0 49 35.5 85t85.5 36q49 0 84.5 -36 t35.5 -85t-35.5 -85t-84.5 -36t-85 36t-36 85z" />
<glyph unicode="&#xf9;" horiz-adv-x="1105" d="M82 477q0 -135 42 -231t107.5 -156.5t148.5 -86t163 -19.5q43 4 81 17t66.5 30.5t49 34t30.5 24.5q16 -53 59 -71.5t103 -18.5h72v795q0 49 -12.5 80.5t-36 49t-54.5 23.5t-67 6h-72v-487q0 -90 -20.5 -148.5t-53.5 -94.5t-76 -49t-86 -11t-79.5 17.5t-64.5 52t-43 98 t-15 157.5v306q0 49 -12.5 80.5t-36 49t-54.5 23.5t-67 6h-72v-477zM336.5 1272q-17.5 43 17.5 76q39 37 92.5 16t110.5 -67t112.5 -102t98.5 -89q-117 -4 -209 21.5t-148.5 63.5t-74 81z" />
<glyph unicode="&#xfa;" horiz-adv-x="1105" d="M82 477v477h72q37 0 67.5 -6t54 -23.5t36 -49t12.5 -80.5v-306q0 -96 15 -157.5t43 -98t64.5 -52t79.5 -17.5t86 11t76 49t53.5 94.5t20.5 148.5v487h72q37 0 67.5 -6t54 -23.5t36 -49t12.5 -80.5v-795h-72q-59 0 -102.5 18.5t-59.5 71.5q-10 -8 -30.5 -24.5t-49 -34 t-66.5 -30.5t-81 -17q-80 -6 -163 19.5t-148.5 86t-107.5 156.5t-42 231zM311 1106q43 33 98.5 89t113 102t110.5 67t92 -16q33 -33 17.5 -76t-73 -81t-149.5 -63.5t-209 -21.5z" />
<glyph unicode="&#xfb;" horiz-adv-x="1105" d="M82 477q0 -135 42 -231t107.5 -156.5t148.5 -86t163 -19.5q43 4 81 17t66.5 30.5t49 34t30.5 24.5q16 -53 59 -71.5t103 -18.5h72v795q0 49 -12.5 80.5t-36 49t-54.5 23.5t-67 6h-72v-487q0 -90 -20.5 -148.5t-53.5 -94.5t-76 -49t-86 -11t-79.5 17.5t-64.5 52t-43 98 t-15 157.5v306q0 49 -12.5 80.5t-36 49t-54.5 23.5t-67 6h-72v-477zM236 1106q0 14 1 24.5t5 19.5t15 19.5t32 26.5l248 203l245 -203q20 -16 31.5 -26.5t16 -19.5t5.5 -19.5t1 -24.5q-68 0 -127 10q-51 10 -100.5 29.5t-71.5 60.5q-23 -41 -73 -60.5t-102 -29.5 q-59 -10 -126 -10z" />
<glyph unicode="&#xfc;" horiz-adv-x="1105" d="M82 477q0 -135 42 -231t107.5 -156.5t148.5 -86t163 -19.5q43 4 81 17t66.5 30.5t49 34t30.5 24.5q16 -53 59 -71.5t103 -18.5h72v795q0 49 -12.5 80.5t-36 49t-54.5 23.5t-67 6h-72v-487q0 -90 -20.5 -148.5t-53.5 -94.5t-76 -49t-86 -11t-79.5 17.5t-64.5 52t-43 98 t-15 157.5v306q0 49 -12.5 80.5t-36 49t-54.5 23.5t-67 6h-72v-477zM233 1182q0 49 36 85t85 36t85 -36t36 -85t-36 -85t-85 -36t-85 36t-36 85zM590 1182q0 49 36 85t85 36t84.5 -36t35.5 -85t-35.5 -85t-84.5 -36t-85 36t-36 85z" />
<glyph unicode="&#xfd;" horiz-adv-x="1103" d="M51 958q59 14 113 11q47 -4 94 -27.5t76 -87.5q72 -166 138.5 -269.5t96.5 -144.5q43 86 87 179.5t89 197.5q35 84 85.5 117t95.5 37q53 6 108 -17q-37 -102 -93 -236t-127 -282.5t-157 -302t-182 -295.5q-43 -63 -97 -87.5t-104 -29.5q-57 -6 -116 9q39 55 86 129 q41 63 96 156.5t123 217.5q-66 68 -122 147t-102 162t-84 166t-69 160q-6 16 -13 33t-12 29q-6 14 -10 28zM352 1106q43 33 98.5 89t113 102t110.5 67t92 -16q33 -33 17.5 -76t-73 -81t-149.5 -63.5t-209 -21.5z" />
<glyph unicode="&#xff;" horiz-adv-x="1103" d="M51 958q4 -14 10 -28q4 -12 11.5 -28.5t13.5 -33.5q31 -78 69 -160.5t84 -165.5t102 -162t122 -147q-68 -125 -123 -218t-96 -156q-47 -74 -86 -129q59 -14 116 -9q49 4 103.5 29t97.5 88q96 141 182 295t157 302.5t127 282.5t93 236q-55 23 -108 17q-45 -4 -95.5 -37 t-85.5 -117q-45 -104 -89 -197.5t-87 -179.5q-31 41 -97 144.5t-138 269.5q-29 63 -76 87t-94 28q-53 4 -113 -11zM274 1182q0 49 36 85t85 36t85 -36t36 -85t-36 -85t-85 -36t-85 36t-36 85zM631 1182q0 49 35.5 85t85.5 36q49 0 84.5 -36t35.5 -85t-35.5 -85t-84.5 -36 t-85 36t-36 85z" />
<glyph unicode="&#x153;" horiz-adv-x="1691" d="M61 473q0 104 33 193.5t92 156.5q59 68 145.5 107t190.5 39q96 0 180 -39t146 -107l8 -8q66 66 155 97.5t181 37.5q80 6 159 -12t142 -59t100 -103.5t35 -144.5q-4 -72 -34.5 -136.5t-104.5 -104.5t-196 -48t-306 33q14 -129 71.5 -184.5t143.5 -55.5t155.5 8.5t119 4 t75 -30t23.5 -92.5q-41 -18 -98 -31q-49 -12 -121 -21.5t-164 -9.5q-98 0 -190.5 34t-159.5 112q-59 -59 -140 -94t-180 -35q-96 0 -179 38.5t-146 106.5t-99.5 157t-36.5 191zM313 494q-10 -98 7.5 -163t47 -101.5t65.5 -52t63 -17.5q27 -4 63.5 5t72.5 41t63.5 92 t37.5 159v31.5t2 31.5q0 80 -20.5 131t-49 81t-59.5 43t-55 16q-27 2 -64.5 -7.5t-72.5 -40t-63.5 -91t-37.5 -158.5zM987 537q82 -23 153.5 -30t125 3t86 40t39.5 81q4 33 -6.5 62.5t-33 51t-60.5 32.5t-89 9q-84 -6 -142.5 -63t-72.5 -186z" />
<glyph unicode="&#x2000;" horiz-adv-x="875" />
<glyph unicode="&#x2001;" horiz-adv-x="1751" />
<glyph unicode="&#x2002;" horiz-adv-x="875" />
<glyph unicode="&#x2003;" horiz-adv-x="1751" />
<glyph unicode="&#x2004;" horiz-adv-x="583" />
<glyph unicode="&#x2005;" horiz-adv-x="437" />
<glyph unicode="&#x2006;" horiz-adv-x="291" />
<glyph unicode="&#x2007;" horiz-adv-x="291" />
<glyph unicode="&#x2008;" horiz-adv-x="218" />
<glyph unicode="&#x2009;" horiz-adv-x="350" />
<glyph unicode="&#x200a;" horiz-adv-x="97" />
<glyph unicode="&#x2010;" horiz-adv-x="989" d="M102 397q0 37 6.5 68t25 54.5t50 35.5t80.5 12h623q0 -37 -6.5 -67.5t-24.5 -54t-50 -36t-81 -12.5h-623z" />
<glyph unicode="&#x2011;" horiz-adv-x="989" d="M102 397q0 37 6.5 68t25 54.5t50 35.5t80.5 12h623q0 -37 -6.5 -67.5t-24.5 -54t-50 -36t-81 -12.5h-623z" />
<glyph unicode="&#x2012;" horiz-adv-x="989" d="M102 397q0 37 6.5 68t25 54.5t50 35.5t80.5 12h623q0 -37 -6.5 -67.5t-24.5 -54t-50 -36t-81 -12.5h-623z" />
<glyph unicode="&#x2013;" horiz-adv-x="1228" d="M102 397q0 37 8.5 68t32.5 54.5t65 35.5t105 12h813q0 -37 -8.5 -67.5t-32 -54t-65 -36t-105.5 -12.5h-813z" />
<glyph unicode="&#x2014;" horiz-adv-x="2252" d="M102 397q0 37 17 68t65 54.5t130.5 35.5t210.5 12h1625q0 -37 -17 -67.5t-64 -54t-130.5 -36t-211.5 -12.5h-1625z" />
<glyph unicode="&#x202f;" horiz-adv-x="350" />
<glyph unicode="&#x205f;" horiz-adv-x="437" />
<glyph unicode="&#x20ac;" horiz-adv-x="1335" d="M61 442q0 37 6.5 68t25 54.5t50 35.5t80.5 12h15q-2 8 -2 16.5v16.5v26.5t2 24.5h-177q0 37 6.5 68t25 54.5t50 35.5t80.5 12h45q31 96 87.5 178t134 141.5t177 93.5t214.5 34q78 0 147.5 -10.5t124.5 -22.5q63 -14 121 -31q0 -80 -28.5 -105.5t-79 -24.5t-120 14.5 t-155.5 13.5q-66 0 -118 -22.5t-94 -60.5t-71.5 -89t-48.5 -109h520q0 -37 -6 -67.5t-23.5 -54t-49 -36t-82.5 -12.5h-392q-2 -12 -2 -24.5v-26.5v-16t2 -17h553q0 -37 -6 -67.5t-23.5 -54t-49 -36t-82.5 -12.5h-365q18 -61 48 -115.5t72 -95.5t96 -64.5t122 -23.5 q86 0 155.5 14.5t120 15.5t79 -24.5t28.5 -105.5q-57 -18 -121 -33q-55 -12 -125 -21t-147 -9q-117 0 -217.5 34.5t-179 96t-135 146.5t-85.5 185h-203z" />
<glyph unicode="&#x25fc;" horiz-adv-x="962" d="M0 0v963h963v-963h-963z" />
</font>
</defs>
</svg>
